<svg xmlns="http://www.w3.org/2000/svg" width="87.483" height="72.526" version="1">
  <g fill="#020103" id="idxpto">
    <path d="M38.768.225c-2 .747-3.7 2.28-4.6 4.136-.4.808-.46 1.252-.46 3.17 0 2.057.04 2.3.6 3.41.74 1.492 2.5 3.126 3.94 3.65 1.46.545 4.06.545 5.52 0 1.44-.524 3.2-2.158 3.94-3.65.56-1.11.6-1.353.6-3.41 0-1.918-.06-2.342-.46-3.17-.74-1.512-2.1-2.884-3.6-3.63-1.14-.566-1.58-.666-3.04-.727-1.06-.02-1.98.06-2.44.222zM24.688 10.535c-3.36 1.473-4.1 6.154-1.38 8.575 1.06.928 1.94 1.25 3.44 1.25s2.64-.463 3.6-1.472c.76-.787 1.46-2.502 1.46-3.55 0-1.817-1.28-3.895-2.86-4.662-1.02-.504-3.28-.565-4.26-.14zM53.088 10.656c-1.62.827-2.88 2.825-2.88 4.64 0 1.07.7 2.785 1.46 3.592.96 1.01 2.1 1.473 3.6 1.473s2.38-.322 3.44-1.25c2.74-2.44 1.96-7.142-1.42-8.575-1.02-.424-3.22-.363-4.2.12zM15.308 16.69c-1.96.907-2.64 2.945-1.64 4.86.52 1.01 1.8 1.817 2.86 1.817 2.94 0 4.58-3.652 2.62-5.83-.54-.586-1.86-1.23-2.54-1.23-.28 0-.86.18-1.3.382zM64.108 16.69c-2.28 1.048-2.82 3.73-1.14 5.547 1.1 1.19 2.6 1.433 4.04.666 1.92-1.03 2.4-3.753.94-5.367-.54-.585-1.86-1.23-2.54-1.23-.28 0-.86.18-1.3.383zM38.108 17.395c-2.98.726-6.24 3.41-7.58 6.214-1.28 2.703-1.32 3.026-1.32 15.333V50h23.6V38.943c0-12.287-.04-12.63-1.32-15.313-1.36-2.866-4.44-5.388-7.6-6.215-1.38-.363-4.36-.383-5.78-.02zM25.308 22.48c-2.64.645-4.04 1.593-5.46 3.672-1.1 1.594-1.12 1.715-1.2 10.774l-.06 8.433h4.4c4.42 0 4.42 0 4.52-.444.06-.263.12-4.64.14-9.746l.06-9.28.62-1.514c.36-.827.58-1.574.5-1.654-.16-.202-2.96-.384-3.52-.243zM53.808 22.54c-.8.16-.8.182-.04 2.038l.54 1.31.1 9.686.1 9.685 4.46.06 4.46.04-.06-8.414c-.08-9.22-.06-9.1-1.32-10.956-1-1.493-2.38-2.582-3.96-3.127-1.12-.384-3.24-.545-4.28-.323zM15.208 25.365c-1.12.363-2.2 1.07-2.86 1.856-1.26 1.474-1.34 1.978-1.34 8.394v5.71h5.8V29.26l.6-1.878c.34-1.008.56-1.896.5-1.957-.18-.18-2.18-.242-2.7-.06zM64.368 25.304c-.2.06-.36.14-.36.182 0 .04.28.908.6 1.917l.6 1.856v12.064h5.8v-5.71c0-4.64-.06-5.89-.32-6.638-.68-2.017-2.72-3.57-4.86-3.712-.62-.02-1.28-.02-1.46.04z" class="node"/>
  </g>
  <g id="tidxpto">
    <text x="-1.26" y="64.903" style="line-height:125%;-inkscape-font-specification:'Century Schoolbook L, Bold';text-align:start" font-weight="bold" font-size="15" font-family="Century Schoolbook L" letter-spacing="0" word-spacing="0">
      <tspan x="-1.26" y="64.903">{{country}}</tspan>
    </text>
  </g>
</svg>
