<?xml version="1.0" ?><!DOCTYPE svg  PUBLIC '-//W3C//DTD SVG 1.1//EN'  'http://www.w3.org/Graphics/SVG/1.1/DTD/svg11.dtd'><svg height="512px" id="Layer_1" style="enable-background:new 0 0 512 512;" version="1.1" viewBox="0 0 512 512" width="512px" xml:space="preserve" xmlns="http://www.w3.org/2000/svg" xmlns:xlink="http://www.w3.org/1999/xlink"><g><path d="M393.6,189.5l12.9-28.1c-49.1-3.8-102.9-6-156.6-6c-49.5,0-98.8,1.8-144.3,6l12.9,28.1c42.3-3.5,88.8-5.3,135.3-5.3   C301.9,184.3,350,186.1,393.6,189.5z"/><path d="M249.9,144.7L249.9,144.7c36.2,0,73.4,1,109.8,2.9l-3.8-13.6c-7.9-3.7-19.1-6.7-32.2-9l-1.4-24.6c0-1.1-3-1-3.1,0   l-1.4,23.6c-12.9-2-27.5-3.3-42.4-3.9l-5.7-24.3c-0.4-2.8,0-5.7,1.4-8.4c1.4-2.7,3.6-4.6,6.2-5.8l20.3-8.4V62.2l-34,13.6   c-1.5,0.6-3,0.9-4.7,0.9s-3.2-0.3-4.7-0.9l-34-13.6v11.2l20.3,8.4c2.5,1.2,4.7,3.2,6.2,5.8c1.4,2.7,1.9,5.6,1.4,8.4l-5.6,24   c-14.9,0.3-29.4,1.3-42.6,3l-1.3-22.3c0-1.1-3-1-3.1,0l-1.3,23.1c-15.1,2.2-28.1,5.3-37,9.4l-3.4,14.2   C184.1,145.6,216.2,144.7,249.9,144.7z"/><path d="M253.9,195c-39.1,0-77.6,1.2-112.8,3.6l-6.6,27.1c65.5-0.8,146.6-0.8,247.1,0.1l-7.6-27C335.9,196.3,294.8,195,253.9,195z"/><path d="M100.8,270.9c33,92.1,96.3,133.8,154.8,178.6l0.4,0.3l0.4-0.3c58.5-44.8,121.9-86.6,154.8-178.6   c-56.4,3.4-111.3,5.3-164.5,5.3C196.4,276.2,147.7,274.6,100.8,270.9z M223.9,388.1l-14.1-3.8c-3.2-0.9-6.2-2.4-8.8-4.6   c-5.9-4.9-10.8-9.3-16.4-18.3c-0.9-1.4,0.7-2.9,2.2-2.2l12.9,5.3c3.1,1.3,5.9,3.1,8.3,5.4c4.2,4.1,11,10.6,17.1,16.3   C226,386.9,225.1,388.4,223.9,388.1z M286.9,386c6.1-5.7,12.9-12.2,17.1-16.3c2.4-2.3,5.2-4.2,8.3-5.4l12.9-5.3   c1.5-0.6,3.1,0.9,2.2,2.2c-5.6,9-10.5,13.4-16.4,18.3c-2.6,2.1-5.5,3.7-8.8,4.6l-14.1,3.8C286.9,388.4,286,386.9,286.9,386z"/><path d="M246.7,265.5c45.4,0,94.1-1.4,144.9-4.2l-7-24.8c-103.2-0.9-186.2-1-252.7-0.1l-6.2,25.5   C164.1,264.3,204.6,265.5,246.7,265.5z"/></g></svg>