<svg xmlns="http://www.w3.org/2000/svg" width="300" height="300" version="1" viewBox="0 0 281.000000 300.000000" preserveAspectRatio="xMidYMid" class="svg" style="width:310px;height:300px"><path fill="#A20059" d="M129.8 11.6l-.3 11.6-8.8-8.3-8.8-8.2-3 3-3 3L118 24.6l12.1 11.9-.3 7.8-.3 7.8-9.5-8.5-9.5-8.6-3 3-3 3.1 5.5 5.2c3 2.9 8.8 8.2 12.8 11.9 7.2 6.8 7.2 6.8 7.2 12v5.3l-8.8-8.8-8.7-8.7-3.3 3.3-3.3 3.2L118 76l12.2 11.5-.4 5.8-.3 5.9-21.5-15c-11.8-8.3-21.6-14.8-21.7-14.4-.2.4 1 11.6 2.5 24.9l2.8 24.2-2.7-1.6c-3-1.8-3-1.5-7-22.6L79.6 83l-3.6.6c-1.9.4-3.8 1-4.3 1.3-.4.4.4 6 1.7 12.4 1.3 6.4 2.2 11.7 1.9 11.7-.3 0-7.9-4.6-9-5.4-.1-.1-1.9-7.6-3.9-16.6-2-9.1-3.8-16.6-3.9-16.8-.4-.4-8.5 1.7-8.5 2.2 0 .2 1.1 5.4 2.5 11.6 1.4 6.2 2.4 11.5 2.1 11.7-.6.6-9.1-4.3-10.4-6-.5-.7-2.1-7.5-3.6-15.2-1.5-7.7-2.9-15.1-3.2-16.4-.4-2.1-.9-2.3-4.5-1.8-2.3.3-4.2.7-4.4.9-.2.2.8 5.7 2.1 12.3 1.3 6.5 2.3 12.2 2.2 12.6-.2.4-4.3-1.7-9.3-4.7-5-3-9.3-5.4-9.7-5.4-.9 0-4.7 6.3-4.2 7.1.2.4 4 2.8 8.4 5.4 4.5 2.6 7.9 4.9 7.7 5.2-.3.2-5.3 1.3-11.3 2.4-5.9 1-10.9 2.1-11.1 2.3-.2.2-.1 2.2.3 4.5.6 3.7 1 4.2 2.8 3.7 1.2-.2 8.8-1.6 16.9-3.1l14.9-2.6 4.1 2.5c9 5.3 9.2 5-4.3 7.6l-12.2 2.4.7 4c.3 2.2.8 4.2 1 4.4.2.2 7.9-1.2 17.3-3.1l16.9-3.4 4.9 2.9c2.7 1.5 4.7 2.8 4.4 2.9-.3.1-5.9 1.1-12.5 2.3l-12 2.2.1 3.7c.1 2.1.4 4 .7 4.4.7.6 3.8.1 25-3.6 10.2-1.8 11.1-1.8 13.8-.3 1.6 1 2.9 1.9 2.9 2.2 0 .3-11.4 5.2-25.3 10.9-13.8 5.7-25.5 10.7-26 11.1-.4.3 10.5 5.3 24.3 11 13.7 5.8 25 10.7 25 11.1 0 .3-1 1.1-2.3 1.6-1.8.8-6.4.3-20.1-2.4-9.8-1.9-18-3.2-18.3-2.9-.3.2-.7 2.2-1 4.4l-.5 4 12.6 2.3c6.9 1.2 12.6 2.5 12.6 2.8 0 .3-2.3 1.8-5 3.3l-5 2.8-16.5-2.6c-9.1-1.5-16.8-2.4-17.2-2.1-.3.4-.6 2.3-.7 4.4l-.1 3.7 10.4 1.7c5.7 1 10.5 2 10.7 2.2.2.1-2.1 1.7-5.1 3.5l-5.5 3.1-16.5-3.1c-9-1.8-16.7-3-16.9-2.7-.3.2-.6 2.2-.8 4.4l-.3 4 10.8 1.9c5.9 1.1 10.7 2.2 10.7 2.6 0 .3-5.1 3.5-11.2 7-6.2 3.5-11.4 6.4-11.6 6.5-.6.5 3.2 7.5 4.1 7.5.5 0 6.8-3.4 13.9-7.5 11.4-6.6 13-7.3 12.5-5.3-2.2 9.7-4.9 23.9-4.5 24.3.2.2 2.2.7 4.4 1l3.9.7 3.4-16.5c1.9-9.1 3.7-16.9 4-17.4 1.3-1.8 13.1-8.2 13.1-7 0 .7-1 6.5-2.2 13-2.4 13.1-2.3 13.7 3.7 13.7h3l2.9-16.5c1.9-11 3.4-16.9 4.5-17.8 2.2-1.9 6.2-4 6.7-3.4.2.2-.6 5.4-1.9 11.5l-2.4 11.1 4.1.9c2.3.5 4.2.8 4.4.7.1-.1 1.7-7.2 3.6-15.6 3.1-14.8 3.4-15.5 6.6-17.7 1.8-1.2 3.4-2.1 3.6-2 .1.2-1.1 11.5-2.6 25.3-1.6 13.7-2.7 25.1-2.5 25.3.4.5 42.2-28.5 43-29.9 1.1-1.7 2.5.2 2.5 3.4 0 2.7-2 5.4-12.2 16.5l-12.1 13.4 3 3 3 3 6.1-6.4c3.3-3.5 7-7.5 8.2-9 1.2-1.6 2.6-2.8 3.1-2.8s.9 2.5.9 5.5c0 6.1 1 4.6-15.2 22.6l-7.8 8.7 3.1 2.6c1.7 1.4 3.4 2.6 3.8 2.6.4 0 4.1-3.9 8.2-8.6l7.4-8.6.3 6.2.3 6.2-5.5 6.1c-3.1 3.4-8.5 9.4-12.1 13.3l-6.4 7.1 3.2 3 3.2 3.1 8-8.9c4.4-4.8 8.3-8.8 8.8-8.9.4 0 .7 5.8.7 13v13h8.9l.3-13 .3-13.1 8.8 8.2 8.9 8.2 2.9-3 3-3-12.1-11.9-12.1-11.9.3-7.8.3-7.9 9.5 8.7 9.4 8.6 3.1-3.1 3-3.1-5.5-5.2c-3-2.9-8.8-8.2-12.8-11.9-7.2-6.8-7.2-6.8-7.2-12v-5.3l8.8 8.8c9.5 9.5 9.3 9.5 12.8 3.1 1.3-2.2.7-3.1-15.4-19.5-4.9-5-7.6-8.6-7.7-10.4-.3-1.9 0-2.5 1.1-2.1.7.3 10.5 6.9 21.6 14.7 11.2 7.8 20.9 14.4 21.6 14.7.9.3 1.2-.2.8-1.9-1.2-5.4-5.9-51-5.3-51.5.3-.3 2.5.4 4.8 1.7l4.3 2.4 4.5 16.3 4.6 16.4 3.4-.6c6-.9 6 .2-1.5-25.8-.4-1.4.2-1.3 4.4.7l5 2.4 3.5 11.3c2 6.2 4.4 14.1 5.4 17.6 1.4 4.7 2.2 6.1 3.3 5.6.8-.3 2.7-.8 4.2-1.1 1.6-.3 2.8-.8 2.8-1.2 0-.3-1.8-6.5-4-13.6-2.2-7.2-4-13.1-4-13.3 0-.1 3.5 1.5 7.8 3.7l7.8 3.9 4.2 15.4c2.4 8.4 4.5 15.8 4.7 16.4.4 1.5 8.5-.5 8.5-2.1 0-.5-1.3-5.7-3-11.5-1.6-5.8-3-11.1-3-11.8 0-.8 2.5 0 6.8 2.2 3.7 1.8 8.4 4.1 10.5 4.9l3.7 1.6 1.5-2.9c.8-1.6 1.5-3.5 1.5-4.2-.1-.7-3.5-2.8-7.6-4.7-12.1-5.5-12-5.5-1.3-8.1 14.4-3.5 14-3.2 12.7-7.7-.5-2.1-1.1-3.9-1.3-4.1-.1-.2-7.2 1.5-15.7 3.7-8.5 2.3-16.5 4.1-17.9 4.1-3.3-.1-11.9-4.7-9.9-5.4.8-.3 5.3-1.6 10-2.9l8.5-2.5-.2-3.7c-.2-2.1-.5-4-.8-4.3-.3-.3-7.5 1.4-16.1 3.8l-15.7 4.3-5-2.5-5-2.4 10.9-2.9c6-1.5 11.2-3 11.6-3.2.5-.2-.9-6.8-1.8-8.1-.1-.2-7.6 1.6-16.8 3.9-15.6 4.1-16.7 4.2-19.7 2.8l-3.2-1.5 8.4-3.6c4.6-2 15-6.4 23.2-9.8 8.1-3.4 14.7-6.5 14.7-6.8 0-.4-10.9-5.2-24.1-10.6l-24.1-10 4.4-2.2 4.5-2.3 15.2 5.5c8.4 3.1 15.5 5.4 15.7 5.2.2-.2 1-2 1.9-4l1.5-3.7-5.3-1.9c-2.8-1.1-8-3-11.5-4.2-7-2.6-7.1-2.4 2.8-7.4l5.5-2.8 15.5 5.1c8.5 2.8 16 5.1 16.6 5.1.7 0 1.5-1.1 1.8-2.4.3-1.3.9-3.1 1.2-3.9.4-1.2-2-2.4-11-5.3-6.4-2.1-11.6-4.1-11.6-4.4 0-.3 3.1-2 6.9-3.9l6.9-3.3 15.3 5.6c8.4 3.1 15.8 5.6 16.4 5.6 1.1 0 3.8-7 3-7.8-.2-.2-5.7-2.3-12.2-4.7l-11.7-4.3L267 88c5.8-2.9 10.6-5.3 10.8-5.5.7-.6-3.3-7.5-4.2-7.5-.6 0-5.3 2.2-10.3 4.9-5.1 2.6-9.3 4.5-9.3 4.2 0-.3 1.8-5.2 4-10.9 2.2-5.6 4-10.6 4-11.1 0-.9-4.5-3.1-6.5-3.1-.9 0-3.7 5.9-7.6 15.9l-6.2 15.8-6.9 3.7c-3.9 2.1-7.2 3.5-7.4 3.3-.3-.2 1.4-5.5 3.6-11.6 2.2-6.2 4-11.4 4-11.7 0-.9-7.4-3.4-8-2.7-.4.5-3.3 8-6.4 16.9l-5.7 16-7.5 3.7c-8.8 4.4-8.6 5.3-2.2-10.7 2.1-5.4 3.7-10 3.5-10.2-.1-.2-2-1-4-1.9L201 84l-1.3 3.2c-.7 1.8-3.7 9.5-6.7 17.1-5.1 13.1-5.5 13.9-9.3 15.8-2.1 1.1-4.1 1.8-4.4 1.5-.5-.4 2-23.8 4.7-45.1.5-3.8.8-7.1.6-7.2-.1-.2-4.5 2.7-9.7 6.4C156.3 88.8 140 100 139.5 100c-.3 0-.5-2.4-.5-5.3 0-5.2 0-5.3 9.1-15.2 5.1-5.5 10.6-11.5 12.2-13.3l3.1-3.2-3-3.1-3.1-3.1-6 6.4c-3.3 3.5-7.4 7.9-9.1 9.8l-3.1 3.5-.1-6.2c0-7-.7-5.8 14.4-22.5 4.9-5.5 7.6-9.3 7.3-10.2-.3-.8-1.8-2.3-3.2-3.2l-2.7-1.7-5.2 5.9c-2.9 3.2-6.5 7.2-7.9 8.9l-2.6 3-.1-6.6v-6.5l12-13c6.6-7.1 12-13.1 11.9-13.4 0-.3-1.4-1.6-3.1-3l-3.1-2.4-8.3 8.7c-4.6 4.8-8.6 8.7-8.9 8.7-.3 0-.5-5.2-.5-11.5V0h-8.9l-.3 11.6zm-16.6 86.7l16.3 11.3.3 5.2c.2 4.2 0 5.2-1.3 5.2-2.7 0-10.6 4.2-14.1 7.6l-3.5 3.2-5-3c-2.7-1.7-4.9-3.1-5-3.2-.2-.2-4.5-37.6-4.3-37.6.1 0 7.6 5.1 16.6 11.3zm60.2-1.6c-.7 5.4-1.8 14.4-2.4 20.1l-1.2 10.3-3.8 1.9c-3.8 1.9-3.8 1.9-5.6-.2-3.3-3.7-10.5-7.7-16.1-8.9l-5.4-1.2.3-4c.3-3.9.5-4.1 17.3-15.8 9.4-6.4 17.2-11.8 17.5-11.8.3-.1 0 4.3-.6 9.6zm-25 33.3c6.6 4 6.5 4.5-1.3 8.4-3.9 2-7.3 3.6-7.6 3.6-.3 0-.5-3.6-.5-7.9v-8l3 .9c1.7.5 4.6 1.8 6.4 3zm-18.4 4.5c0 4.1-.2 7.5-.5 7.5-.2 0-3-1.6-6.1-3.6l-5.6-3.6 2.2-2.3c2.1-2.2 7.5-5.4 9.3-5.5.4 0 .7 3.4.7 7.5zm-27.5 1.6c3.5 2.1 3.6 2.3 2.8 6.3-1 5.2-1 10 0 15.2l.8 4-4.8 2.6-4.8 2.6-19.3-8c-10.6-4.5-19-8.3-18.7-8.6.9-.9 37.8-16.1 39.2-16.2.6 0 2.8 1 4.8 2.1zm88 4.7c6.6 2.7 14.4 6 17.4 7.3l5.3 2.4-18.3 7.6-18.4 7.7-4.8-2.4c-4.4-2.3-4.7-2.7-4-5.2 1-3.5 1-12.9 0-16.8-.7-2.7-.5-3.2 2.5-4.7 4.4-2.2 6.2-1.8 20.3 4.1zm-70.8 5.8l5.6 3.5-5.7 3.5c-3.1 1.9-5.9 3.4-6.1 3.4-.2 0-.6-1.8-1-4-.6-3.7.1-10 1.1-10 .3 0 3 1.6 6.1 3.6zm39.3 2.7c0 3.5-.3 6.6-.6 7-.7.6-13.4-5.3-13.4-6.3 0-.6 11.9-6.8 13.3-6.9.4-.1.7 2.7.7 6.2zm-28 16.2v7.5l-3.6-1.5c-4-1.6-9.4-5.3-9.4-6.3 0-.7 10.9-7.1 12.3-7.2.4 0 .7 3.4.7 7.5zm21.2.8c-1.9 2.1-6.9 5.2-9.9 6.2-2.2.6-2.3.4-2.3-6.9v-7.5l6.9 3.2c6.4 3 6.8 3.3 5.3 5zm-37.6 6.1c3.3 3 9.4 6.4 14.7 8 1.3.4 1.7 1.6 1.6 5.3v4.8l-17.2 11.7c-9.4 6.4-17.2 11.6-17.3 11.5-.2-.3 4.5-38.9 4.8-39.2.6-.4 9.3-5.5 9.5-5.5.1 0 1.9 1.5 3.9 3.4zm51.7-1.8l3.4 1.6 2.1 19.2c1.2 10.5 2.2 19.9 2.2 20.8 0 1.2-2.8-.3-10.3-5.5-5.7-4-13.3-9.2-17-11.7-6.6-4.5-6.7-4.5-6.7-9.2 0-4.4.2-4.8 2.8-5.4 6.5-1.4 14.9-6 18.1-9.8 1.6-1.9 1.3-1.9 5.4 0z" class="node"/></svg>